<svg id="Layer_1" enable-background="new 0 0 512 512" height="512" viewBox="0 0 512 512" width="512" xmlns="http://www.w3.org/2000/svg"><g id="XMLID_1007_"><g id="XMLID_1443_"><path id="XMLID_1118_" d="m10 423.012h492v64h-492z" fill="#ffda8f"/></g><g id="XMLID_1078_"><g id="XMLID_1086_"><g id="XMLID_1087_"><g id="XMLID_1088_"><g id="XMLID_1089_"><path id="XMLID_43_" d="m419.692 259.168c5.142 13.191 13.698 25.523 23.821 34.794 23.474 21.498 38.496 53.382 38.496 85.212h-143.733v-134.84c0-49.055 39.767-88.822 88.822-88.822h21.641l-13.568 31.224-.007.016c10.364 3.825 19.663 10.362 26.8 19.138 4.25 5.225 6.57 11.755 6.57 18.49l14.283 15.964c10.661 11.916 9.847 30.168-1.833 41.087-8.077 7.551-19.707 9.933-30.103 6.165l-19.331-7.007" fill="#ffe6b4"/></g></g></g></g><g id="XMLID_1084_"><path id="XMLID_333_" d="m318 379.175h184v43.837h-184z" fill="#ffcd69"/></g></g><g id="XMLID_1117_"><g id="XMLID_1133_"><g id="XMLID_1134_"><g id="XMLID_1135_"><g id="XMLID_1136_"><path d="m92.308 259.168c-5.142 13.191-13.698 25.523-23.821 34.794-23.474 21.498-38.496 53.382-38.496 85.212h143.733v-134.84c0-49.055-39.767-88.822-88.822-88.822h-21.641l13.568 31.224.007.016c-10.364 3.825-19.663 10.362-26.8 19.138-4.25 5.225-6.57 11.755-6.57 18.49l-14.283 15.964c-10.661 11.916-9.847 30.168 1.833 41.087 8.077 7.551 19.707 9.933 30.103 6.165l19.331-7.007" fill="#ffe6b4"/></g></g></g></g><g id="XMLID_1132_"><path id="XMLID_329_" d="m10 379.175h184v43.837h-184z" fill="#ffcd69"/></g></g><g id="XMLID_1376_"><g id="XMLID_1184_"><path id="XMLID_312_" d="m300.141 48.997c-13.263 0-24.015-10.752-24.015-24.014h-40c0 13.263-10.752 24.014-24.014 24.014v40c13.263 0 24.014 10.752 24.014 24.014h40c0-13.263 10.752-24.014 24.014-24.014v-40z" fill="#c5d3de"/></g><g id="XMLID_1375_"><path id="XMLID_40_" d="m283.198 212.527h-54.396l-19.208-76.341c-2.825-11.228 5.664-22.118 17.242-22.118h58.328c11.578 0 20.067 10.89 17.242 22.118z" fill="#6d92ac"/></g><g id="XMLID_1363_"><g id="XMLID_1364_"><path id="XMLID_305_" d="m292.204 247.298v-53.444h-72.408v53.444c0 49.531-25.558 95.529-67.558 121.713h207.524c-42-26.184-67.558-72.182-67.558-121.713z" fill="#c5d3de"/></g><g id="XMLID_1367_"><path id="XMLID_42_" d="m151.593 369.424v53.588h208.814v-53.588c-.218-.134-.428-.277-.645-.412h-207.524c-.217.135-.427.278-.645.412z" fill="#6d92ac"/></g></g></g><g id="XMLID_1622_"><path id="XMLID_1634_" d="m502 369.175h-10.445c-2.222-25.045-12.654-49.857-29.192-69.843 9.314-.332 18.357-3.964 25.451-10.596 15.529-14.518 16.631-39.217 2.457-55.06l-11.947-13.354c-.791-7.565-3.775-14.811-8.601-20.743-5.936-7.299-13.244-13.352-21.477-17.841l9.664-22.241c1.343-3.091 1.039-6.651-.809-9.469s-4.992-4.516-8.362-4.516h-21.641c-54.491 0-98.822 44.332-98.822 98.822v82.01c-16.613-22.654-26.072-50.375-26.072-79.045v-43.444h4.296c5.523 0 10-4.477 10-10s-4.477-10-10-10h-5.776l11.38-45.228c2.104-8.361.271-17.058-5.031-23.858-4.475-5.74-10.865-9.403-17.934-10.409 2.568-3.259 6.541-5.362 11.003-5.362 5.523 0 10-4.477 10-10v-40c0-5.523-4.478-10-10-10-7.728 0-14.014-6.287-14.014-14.015 0-2.652-1.054-5.196-2.929-7.071s-4.419-2.929-7.071-2.929h-40c-5.523 0-10 4.477-10 10 0 7.728-6.287 14.014-14.015 14.014-2.652 0-5.196 1.054-7.071 2.929s-2.929 4.419-2.929 7.071v40c0 5.523 4.477 10 10 10 4.447 0 8.409 2.089 10.978 5.329-7.16.958-13.64 4.639-18.164 10.442-5.301 6.8-7.135 15.497-5.031 23.858l11.38 45.228h-5.776c-5.523 0-10 4.477-10 10s4.477 10 10 10h4.296v43.444c0 28.67-9.459 56.391-26.072 79.045v-82.01c0-54.491-44.332-98.822-98.822-98.822h-21.641c-3.37 0-6.514 1.698-8.362 4.516s-2.152 6.378-.809 9.469l9.664 22.241c-8.233 4.489-15.54 10.542-21.477 17.84-4.825 5.933-7.81 13.178-8.601 20.743l-11.947 13.354c-14.174 15.843-13.072 40.542 2.457 55.059 7.094 6.633 16.137 10.264 25.451 10.597-16.541 19.988-26.972 44.796-29.193 69.843h-10.444c-5.523 0-10 4.477-10 10v107.837c0 5.523 4.477 10 10 10h201c5.523 0 10-4.477 10-10s-4.477-10-10-10h-191v-44h472v44h-191c-5.523 0-10 4.477-10 10s4.477 10 10 10h201c5.523 0 10-4.477 10-10v-107.835c0-5.523-4.477-10-10-10zm-74.902-203.663h6.393l-7.487 17.231c-1.104 2.523-1.118 5.391-.04 7.925s3.155 4.511 5.739 5.465c8.822 3.256 16.604 8.812 22.505 16.066 2.791 3.431 4.328 7.757 4.328 12.18 0 2.46.907 4.834 2.547 6.667l14.283 15.964c6.98 7.802 6.437 19.965-1.21 27.115-5.358 5.008-12.969 6.567-19.866 4.069l-16.409-5.948c-3.595-5.255-6.611-10.909-8.872-16.711-2.005-5.146-7.804-7.691-12.949-5.685-5.146 2.006-7.691 7.803-5.685 12.949 5.62 14.415 14.989 28.101 26.384 38.536 19.439 17.802 32.026 42.644 34.706 67.838h-101.074c-.085-3.375-1.855-6.488-4.739-8.265-6.174-3.804-11.977-8.093-17.376-12.797v-103.777c0-43.463 35.359-78.822 78.822-78.822zm-265.505 213.912h188.813v33.588h-188.813zm60.52-321.926c10.727-3.306 19.208-11.788 22.515-22.515h22.999c3.306 10.727 11.788 19.208 22.515 22.515v22.999c-10.727 3.306-19.208 11.788-22.515 22.515h-22.999c-3.306-10.728-11.788-19.209-22.515-22.515zm-1.413 69.567c1.485-1.904 3.721-2.997 6.136-2.997h58.328c2.415 0 4.651 1.092 6.136 2.997 1.484 1.904 1.998 4.34 1.409 6.682l-12.608 50.108h-48.202l-12.608-50.108c-.589-2.342-.075-4.778 1.409-6.682zm-10.379 195.049c12.741-22.814 19.476-48.685 19.476-74.815v-43.444h52.407v43.444c0 26.131 6.734 52.001 19.476 74.815 7.763 13.901 17.675 26.487 29.258 37.31h-149.875c11.583-10.823 21.494-23.409 29.258-37.31zm-135.08-20.777c11.395-10.435 20.764-24.121 26.384-38.536 2.006-5.146-.539-10.943-5.685-12.949-5.148-2.007-10.944.539-12.949 5.685-2.262 5.802-5.277 11.456-8.872 16.711l-16.409 5.948c-6.897 2.501-14.508.94-19.866-4.069-7.647-7.149-8.19-19.313-1.21-27.114l14.283-15.964c1.641-1.833 2.547-4.207 2.547-6.667 0-4.423 1.537-8.749 4.328-12.181 5.9-7.254 13.683-12.81 22.505-16.066 2.58-.952 4.65-2.932 5.73-5.461s1.068-5.398-.028-7.921l-7.49-17.238h6.393c43.463 0 78.822 35.359 78.822 78.822v103.779c-5.399 4.704-11.202 8.993-17.376 12.797-2.884 1.777-4.654 4.891-4.739 8.265h-101.074c2.679-25.198 15.262-50.033 34.706-67.841zm-55.241 87.838h121.593v23.837h-121.593zm350.407 23.837v-23.837h121.593v23.837z"/><path id="XMLID_1656_" d="m256 477.007c-2.63 0-5.21 1.07-7.07 2.93s-2.93 4.44-2.93 7.07c0 2.64 1.07 5.22 2.93 7.08s4.44 2.93 7.07 2.93 5.21-1.07 7.07-2.93c1.86-1.87 2.93-4.44 2.93-7.08 0-2.63-1.07-5.2-2.93-7.07-1.86-1.86-4.44-2.93-7.07-2.93z"/></g></g></svg>