<svg id="Capa_1" enable-background="new 0 0 512.01 512.01" height="512" viewBox="0 0 512.01 512.01" width="512" xmlns="http://www.w3.org/2000/svg"><g><ellipse cx="177.436" cy="157.915" fill="#e7889d" rx="167.786" ry="150.415"/><path d="m310.643 249.368c-183.051-3.425-227.37-168.442-194.768-231.421-62.209 22.007-106.225 76.379-106.225 139.968 0 83.072 75.12 150.415 167.786 150.415 54.285.001 102.539-23.117 133.207-58.962z" fill="#e26e7e"/><path d="m150.521 268.43c40.602-17.409 102.955-76.05 122.887-95.982l154.725 154.725c-19.932 19.932-78.574 82.285-95.982 122.887z" fill="#daa985"/><g><g fill="#fff"><ellipse cx="216.387" cy="271.683" rx="23.377" ry="29.355" transform="matrix(.707 -.707 .707 .707 -128.731 232.584)"/><ellipse cx="328.897" cy="384.193" rx="23.377" ry="29.355" transform="matrix(.707 -.707 .707 .707 -175.334 345.093)"/></g></g><path d="m164.32 273.68 162.58 162.58c10.288 10.288 12.656 26.087 5.835 38.94l-9.046 17.045c-7.27 13.698-25.716 16.462-36.681 5.497l-184.169-184.17c-10.965-10.966-8.201-29.411 5.497-36.681l17.045-9.046c12.852-6.821 28.651-4.453 38.939 5.835z" fill="#e7c7af"/><path d="m460.637 283.111-143.168-143.168c5.286-8.262 12.068-19.79 17.644-30.057 6.277-11.557 21.1-15.192 32.042-7.894 27.979 18.661 57.21 46.183 71.23 60.203s41.542 43.251 60.203 71.23c7.297 10.942 3.663 25.765-7.894 32.042-10.267 5.576-21.795 12.358-30.057 17.644z" fill="#daa985"/><path d="m460.637 283.111-143.168-143.168c4.709-7.36 10.602-17.309 15.775-26.652l154.045 154.045c-9.343 5.173-19.292 11.066-26.652 15.775z" fill="#d2896f"/><path d="m428.133 327.172c-5.329 5.329-13.428 13.694-22.764 23.862l-155.822-155.823c10.168-9.336 18.532-17.434 23.862-22.764z" fill="#d2896f"/><path d="m272.746 175.984 151.85 151.85c9.083 9.083 23.808 9.083 32.891 0l7.491-7.491c9.082-9.083 9.082-23.808 0-32.891l-151.85-151.85c-9.082-9.082-23.808-9.082-32.891 0l-7.491 7.491c-9.082 9.083-9.082 23.809 0 32.891z" fill="#f2d98d"/><path d="m350.03 358.048c-4.368.297-8.637-1.298-11.72-4.38-3.084-3.084-4.68-7.357-4.38-11.72.284-4.133-2.836-7.713-6.968-7.997-4.15-.274-7.712 2.836-7.997 6.968-.598 8.69 2.587 17.203 8.738 23.355 6.323 6.322 14.919 9.322 23.354 8.738 4.132-.283 7.252-3.863 6.969-7.996-.284-4.132-3.865-7.233-7.996-6.968zm-228.341-306.385c-4.143 0-7.5 3.357-7.5 7.5v69.731c0 3.651 2.629 6.771 6.228 7.392 1.756.301 22.8.125 25.753.108 4.143-.023 7.481-3.4 7.458-7.542-.023-4.052-3.283-7.458-7.542-7.458-5.886.033-12.215.057-16.896.059v-62.29c-.001-4.142-3.358-7.5-7.501-7.5zm-23.446 190.934c14.114 0 25.958-8.961 28.163-21.308 1.65-9.243-2.607-21.341-19.507-27.574-8.769-3.234-16.917-6.761-19.208-7.766-3.976-3.048-3.135-10.181 4.118-12.366 10.496-3.164 20.099 4.475 20.335 4.666 3.17 2.637 7.878 2.218 10.534-.942 2.665-3.171 2.256-7.902-.915-10.567-.64-.536-15.843-13.075-34.28-7.52-19.584 5.9-22.804 29.654-7.58 39.581 2.123 1.386 17.992 7.58 21.805 8.986 3.349 1.235 11.021 4.768 9.932 10.865-.785 4.396-6.011 8.944-13.396 8.944-7.277 0-14.291-2.946-18.763-7.882-2.779-3.069-7.522-3.303-10.594-.521-3.069 2.78-3.303 7.523-.521 10.594 7.265 8.021 18.435 12.81 29.877 12.81zm160.493-148.22c0-23.377-19.019-42.396-42.395-42.396-23.377 0-42.395 19.019-42.395 42.396s19.018 42.396 42.395 42.396c23.376 0 42.395-19.019 42.395-42.396zm-69.791 0c0-15.105 12.29-27.396 27.395-27.396s27.396 12.29 27.396 27.396c0 15.105-12.29 27.396-27.396 27.396s-27.395-12.291-27.395-27.396zm46.62 148.177c-4.151-.275-7.712 2.836-7.997 6.968-.598 8.691 2.588 17.204 8.738 23.355 6.335 6.336 14.936 9.322 23.353 8.739 4.132-.283 7.252-3.863 6.969-7.996-.284-4.133-3.865-7.233-7.996-6.969-4.358.29-8.636-1.297-11.719-4.381-3.084-3.084-4.681-7.355-4.381-11.719.285-4.133-2.835-7.713-6.967-7.997zm269.263-13.29c-17.838-26.748-43.214-54.009-55.875-67.03l15.67-15.67 2.378 2.378c2.931 2.929 7.678 2.928 10.607 0 2.929-2.93 2.929-7.678 0-10.607l-2.378-2.379 7.626-7.625c2.929-2.93 2.929-7.678 0-10.607-2.93-2.928-7.678-2.928-10.607 0l-7.625 7.625-2.377-2.377c-2.93-2.928-7.678-2.928-10.607 0-2.929 2.93-2.929 7.678 0 10.607l2.378 2.377-15.67 15.67c-13.02-12.66-40.279-38.034-67.029-55.876-9.68-6.454-22.576-6.866-32.816-.214-27.462-57.569-90.716-95.536-161.067-95.536-37.73 0-73.673 10.629-103.944 30.737-3.45 2.292-4.389 6.946-2.097 10.397 2.292 3.45 6.947 4.389 10.397 2.097 27.803-18.468 60.877-28.231 95.644-28.231 67.007 0 126.852 37.222 150.176 92.966-3.653 6.659-7.763 13.779-11.62 20.142-11.945-9.672-29.704-9.162-41.057 2.191l-7.493 7.491c-9.618 9.619-11.514 24.073-5.702 35.607-10.426 10.09-35.686 33.947-62.559 54.965-.993-.486-2.105-.766-3.286-.766h-21.639v-19.576h19.49c4.143 0 7.5-3.357 7.5-7.5s-3.357-7.5-7.5-7.5h-19.49v-19.577h21.639c4.143 0 7.5-3.357 7.5-7.5s-3.357-7.5-7.5-7.5h-29.139c-4.143 0-7.5 3.357-7.5 7.5v69.154c0 4.143 3.357 7.5 7.5 7.5h13.235c-9.045 6.303-17.915 11.835-26.113 15.974-10.316-3.495-21.848-2.745-32.015 2.649l-17.044 9.047c-4.442 2.357-8.124 5.668-10.859 9.638-47.557-25.915-76.81-72.038-76.81-121.99 0-34.173 13.751-67.247 38.72-93.132 2.876-2.981 2.791-7.73-.19-10.605-2.98-2.876-7.729-2.79-10.604.19-27.682 28.696-42.926 65.47-42.926 103.547 0 56.201 33.031 107.915 86.599 136.246-.952 9.19 2.201 18.129 8.786 24.715l184.17 184.17c14.654 14.654 39.052 10.724 48.609-7.285l9.046-17.045c5.395-10.166 6.145-21.697 2.651-32.013 2.834-5.604 6.478-11.823 10.877-18.545 2.268-3.466 1.296-8.114-2.17-10.383-3.466-2.268-8.115-1.296-10.383 2.17-2.699 4.125-5.132 8.085-7.305 11.871-.894-.947-117.1-117.128-163.406-163.438v.001c-.283-.282-.572-.554-.861-.827 38.402-22.122 85.851-66.45 102.471-82.472l144.262 144.26c-11.229 11.615-33.413 35.272-53.905 61.32-2.562 3.256-1.998 7.971 1.257 10.532 3.273 2.574 7.985 1.981 10.532-1.257 20.652-26.252 43.088-50.056 53.79-61.088 11.343 5.745 25.826 4.086 35.621-5.71l7.491-7.492c11.21-11.21 11.938-28.991 2.19-41.058 6.895-4.18 14.693-8.669 21.803-12.53 15.37-8.349 20.322-28.147 10.553-42.793zm-183.232 212.299c8.011 8.012 9.824 20.116 4.514 30.122l-9.046 17.045c-4.907 9.247-17.344 11.119-24.752 3.709l-184.17-184.17c-7.404-7.402-5.546-19.842 3.71-24.752l17.044-9.047c10.027-5.321 22.126-3.48 30.12 4.514v.001zm138.078-126.524-7.491 7.491c-6.158 6.16-16.126 6.16-22.283 0l-151.85-151.85c-6.145-6.144-6.145-16.141-.002-22.283l7.493-7.492c6.158-6.158 16.126-6.159 22.283.001l151.85 151.85c6.144 6.142 6.144 16.14 0 22.283zm27.442-56.163c-8.34 4.529-17.622 9.91-25.401 14.706l-134.716-134.717c4.792-7.773 10.172-17.054 14.706-25.399 4.165-7.67 13.984-10.105 21.289-5.235 30.15 20.109 61.269 50.448 70.088 59.268 8.82 8.819 39.161 39.941 59.268 70.089 4.863 7.29 2.447 17.116-5.234 21.288zm-200.195 99.758c3.562 0 6.722-2.548 7.373-6.176 5.262-29.323-16.877-51.431-46.172-46.171-4.076.731-6.788 4.63-6.057 8.707.732 4.077 4.629 6.792 8.707 6.057 9.063-1.626 17.377.546 22.794 5.963 5.417 5.418 7.591 13.727 5.964 22.794-.825 4.598 2.709 8.826 7.391 8.826z"/></g></svg>